<svg width="34" height="38" viewBox="0 0 34 38" fill="none" xmlns="http://www.w3.org/2000/svg">
<g id="koper">
<path id="Vector" d="M16.8799 35.2809C16.1033 35.2432 15.3942 34.9793 14.7527 34.4891C14.6176 34.4137 14.4826 34.2629 14.3813 34.1498C14.3475 34.1121 14.28 34.0367 14.1787 33.9235L14.0099 33.735C10.7346 30.3039 8.81004 25.5909 8.67498 20.3877C8.50615 14.6189 10.5321 8.81245 14.1787 4.43874C14.28 4.32563 14.3813 4.21251 14.4488 4.1371C14.4826 4.0994 14.5163 4.0617 14.5501 4.02399C14.6514 3.91088 14.7527 3.79777 14.8878 3.64695L14.9215 3.60924C16.6435 1.91255 19.1084 1.87484 20.6278 3.49613C20.8304 3.72236 21.033 3.94858 21.1681 4.17481C21.3707 4.55185 21.5395 4.9666 21.6745 5.41905L17.589 11.8665C16.6098 11.9796 15.6306 11.7157 14.8878 11.1124C14.8878 11.1124 14.8878 11.1124 14.854 11.0747C14.854 11.0747 14.854 11.0747 14.8202 11.037C14.8202 11.037 14.7865 10.9993 14.7527 11.037C14.7189 10.9993 14.6852 11.037 14.6514 10.9993C14.6176 10.9616 14.5839 10.9993 14.5839 10.9993L14.5163 10.9993C14.4826 11.037 14.4488 10.9993 14.415 11.037C14.3813 11.0747 14.3813 11.0747 14.3137 11.0747C14.28 11.1124 14.28 11.1124 14.2462 11.1501L14.2125 11.1878C14.2125 11.1878 14.2125 11.1878 14.1787 11.2255C14.1787 11.2255 14.1787 11.2255 14.1449 11.2632C11.8489 16.3156 11.8151 22.0844 14.1112 26.7597L14.1449 26.7974C14.1449 26.7974 14.1449 26.7974 14.1787 26.8351L14.2125 26.8728C14.2462 26.9105 14.28 26.9482 14.3475 26.9482C14.3475 26.9482 14.3813 26.9859 14.415 26.9482C14.4488 26.9859 14.4826 26.9482 14.5163 26.9859L14.5839 26.9859C14.6176 26.9482 14.6514 26.9859 14.6852 26.9482C14.6852 26.9482 14.7189 26.9105 14.7527 26.9482L14.7865 26.9105L14.8202 26.8728L14.854 26.8351C15.6306 26.1187 16.6098 25.704 17.6227 25.6286L21.5395 31.4351C21.4382 31.8498 21.2694 32.2646 21.0668 32.6416L21.033 32.6793C20.9317 32.8678 20.7966 33.0941 20.6616 33.2449C20.5941 33.3203 20.5265 33.3957 20.459 33.4711C19.446 34.753 18.1292 35.3186 16.8799 35.2809Z" fill="black"/>
</g>
</svg>
