<svg version="1.2" xmlns="http://www.w3.org/2000/svg" viewBox="0 0 232 48" width="232" height="48">
	<title>splenzo-logo-svg</title>
	<style>
		.s0 { fill: #000000 } 
		.s1 { fill: #70a1d1 } 
		.s2 { fill: #29549f } 
		.s3 { fill: #cadcee } 
		.s4 { fill: #ffffff } 
	</style>
	<path id="Layer" fill-rule="evenodd" class="s0" d="m192.5 20.7c0 0-0.1-3.5 3.9-4.3v-3.4h-6.8c0 0-2.1-0.1-2.2 1.7v16.4c0 0-0.1 1.7 2.1 1.9h17.3c0 0 2.3 0 2.4-1.8v-16.6c0 0-0.2-1.5-2.2-1.6h-1.3v-3.9h2.2c0 0 4.6 0 5.6 5.4l-0.1 17.4c0 0-0.2 4.1-5.3 5h-19.2c0 0-5.4-0.1-5.8-5.7v-16.7c0 0 0.4-5 5.8-5.3h9.2v7.2c0 0 3.4 0.3 3.8 4.3zm-125.7-20.7h4.2v30.9c0 1.3 0.9 2.1 2.3 2.1h4.8v3.9h-5.5c-2.9 0-5.8-2.7-5.8-5.3zm47.6 9.1h24.5c2.3 0 4.6 1.7 5.4 3.6 0.3 0.7 0.4 1.4 0.4 2.4v21.9h-4.3v-22.3c0-1-0.9-1.7-2.3-1.7h-17c-1.5 0-2.5 0.7-2.5 2.1v21.9h-4.2zm34.5 3.9v-3.9h30.4v5.2c0 0.3-0.5 0.5-0.7 0.7l-24.9 18h25.6v3.9h-30.4v-5.3c0-0.2 0.1-0.2 0.3-0.3l10.9-7.9c0.3-0.2 0.5-0.4 0.8-0.6 0.4-0.2 0.5-0.3 0.8-0.5 1.6-1.2 12.5-9 12.7-9.3zm-143.2-3.9h18.8c1.7 0 3.3 1 4.2 1.8 1.2 1.3 1.6 2.7 1.6 4.4h-4.3c0-1.4-0.8-2.3-2.3-2.3h-17.3c-1.4 0-2.3 0.8-2.3 2.1v3.7c0 1.3 0.7 2.2 2.1 2.2h13c2.7 0 5.9-0.3 7.9 0.8 3.8 2 3.2 5.4 3.2 9.2 0 3.2-2.7 5.9-5.9 5.9h-18.7c-2.8 0-5.7-2.7-5.7-5.3v-0.9h4.2c0 1.4 0.7 2.3 2.2 2.3h17.4c1.4 0 2.3-0.8 2.3-2.1v-3.7c0-1.3-0.7-2.2-2-2.2-3.9-0.1-8.8 0-12.8 0-2.4 0-6.2 0.3-8-0.6-1.5-0.8-3.3-2.6-3.3-4.9v-5.1c0-2.6 2.9-5.3 5.7-5.3zm28.4 0h24.5c3.1 0 5.8 2.7 5.8 5.9v16c0 3.2-2.6 5.9-5.8 5.9h-20.3v11.1h-4.2zm6.7 23.9h17c1.3 0 2.3-0.7 2.3-1.6v-16.8c0-0.9-1-1.6-2.3-1.6h-17c-1.5 0-2.5 0.7-2.5 2.1v15.8c0 1.4 1 2.1 2.5 2.1zm41-22.1c0.9-0.9 2.4-1.8 4.2-1.8h18.7c2.9 0 5.8 2.7 5.8 5.3v10.6h-26.1v6.4c0 0.9 1 1.6 2.4 1.6h23.6v3.9h-24.5c-3.1 0-5.8-2.7-5.8-5.9v-16c0-1.6 0.6-3 1.7-4.1zm2.6 3.7v6.4h21.7v-6.4c0-0.9-1-1.6-2.3-1.6h-17q-1.1 0-1.6 0.4c-0.3 0.2-0.8 0.8-0.8 1.2z"/>
	<path id="Layer" fill-rule="evenodd" class="s0" d="m222.4 4.4q2.2 0 4.4 1.2 2.1 1.1 3.3 3.3 1.2 2.1 1.2 4.4 0 2.3-1.2 4.4-1.2 2.2-3.3 3.3-2.1 1.2-4.4 1.2-2.3 0-4.4-1.2-2.1-1.1-3.3-3.3-1.2-2.1-1.2-4.4 0-2.3 1.2-4.4 1.2-2.2 3.3-3.3 2.2-1.2 4.4-1.2zm0 1.5q-1.9 0-3.6 1-1.8 0.9-2.8 2.7-1 1.8-1 3.7 0 2 1 3.7 1 1.8 2.7 2.8 1.8 0.9 3.7 0.9 1.9 0 3.7-0.9 1.8-1 2.7-2.8 1-1.7 1-3.7 0-1.9-1-3.7-1-1.8-2.8-2.7-1.7-1-3.6-1zm-3.9 12.3v-9.5h3.3q1.7 0 2.4 0.3 0.8 0.2 1.2 0.9 0.5 0.6 0.5 1.4 0 1-0.8 1.8-0.7 0.8-2 0.9 0.6 0.2 0.9 0.5 0.5 0.5 1.4 1.9l1.1 1.8h-1.8l-0.9-1.5q-1-1.7-1.6-2.2-0.4-0.3-1.2-0.3h-0.9v4zm1.5-5.3h1.9q1.3 0 1.8-0.4 0.5-0.4 0.5-1.1 0-0.4-0.2-0.8-0.3-0.3-0.7-0.5-0.4-0.1-1.6-0.1h-1.7z"/>
	<path id="Layer" fill-rule="evenodd" class="s1" d="m187.2 31.7l19.2-0.1 1.8-2.9c-1 0-3.6 0.5-5.5 0.5-4.7 0-8.1-0.8-11.6-3.5-1.1-0.9-2.5-2.4-3.3-3.5-0.6-0.8-0.4-0.7-1.4-0.7z"/>
	<path id="Layer" fill-rule="evenodd" class="s2" d="m186.3 23.5c0 3.3 0.1 6.4 0.1 9.7 4.5 0 8.9-0.1 13.6-0.1 1.1 0 2-0.1 3.2-0.1h10.2c0-0.6-0.1-1.6-0.2-2.1-0.2-1.3 0.1-1.1-1-1.4-6.3-2.3-9.6 1-14.1 1-2.1 0-3.1-0.1-5-0.9-2.5-1.2-4.3-3.7-5.3-6.1-0.2-0.5-0.4-1.1-0.6-1.7h-0.9v1.7z"/>
	<path id="Layer" fill-rule="evenodd" class="s3" d="m200.5 28.8c3.8 0 8.8-1.4 12.6 0.5 0-1.8-0.1-3.3-0.1-5-1.1-0.1-0.5-0.4-3-0.4-3 0-7.7 2.2-11.2 2.2-2.2 0-3.4 0-5.3-1-1.1-0.6-2.7-1.8-3.4-2.7-0.1-0.2-0.3-0.4-0.5-0.6-0.2-0.3-0.3-0.5-0.4-0.7-1.1-1.9-1.1-2-1.7-3.7-0.2-0.3-0.1-0.3-0.3-0.5v4.5c0.2 1.2 2.9 3.4 3.7 4.1l2 1.3c2.3 1.1 4.7 2 7.6 2z"/>
	<path id="Layer" fill-rule="evenodd" class="s4" d="m201.2 21.5v0.1h0.1 0.1v0.1q0.1 0.1 0.2 0.1l0.1 0.1q0 0 0.1 0 0 0 0.1 0.1c0 0 0 0 0.1 0.1 0 0.1 0.1 0.1 0.1 0.1 0 0.1 0 0.1 0 0.1 0 0 0 0 0.1 0.1 0 0 0 0.1 0 0.2 0 0-0.1 0.1-0.1 0.1 0 0 0 0 0 0q0 0 0 0.1h-0.1q0 0.1 0 0.1c0 0-0.1 0-0.1 0.1 0 0-0.2 0-0.2 0q-0.1 0-0.2 0.1 0 0-0.1 0-0.1 0-0.1 0l-0.2-0.1c0 0 0 0 0 0l-0.1-0.1q0 0 0-0.1c0 0 0 0 0-0.1l-0.1-0.1q0 0 0 0c0-0.1 0-0.1 0-0.2q0 0 0-0.1 0 0 0 0c0 0 0-0.4 0-0.4q0-0.1 0-0.1c0 0 0-0.1 0-0.1q0 0 0-0.1 0 0 0-0.2 0 0 0.1 0.1c0 0 0 0 0.1 0.1 0-0.2 0-0.1 0.1-0.1zm-2.5 0q0.1-0.1 0.2-0.2c0 0 0-0.1 0.1-0.1q0 0 0 0h0.1c0 0 0 0 0 0q0 0.1 0 0.1l0.1 0.1q0 0.1 0 0c0 0.1 0.1 0.2 0.1 0.2 0 0 0 0 0 0.1h0.1c0 0.1 0 0.1 0 0.1l0.3 0.4c0 0 0 0 0 0v0.1c0 0 0.1 0.2 0.1 0.2q0 0 0 0v0.2c0 0 0 0 0 0.1 0 0 0 0.1 0 0.1v0.1q0 0.1-0.1 0.1v0.1l-0.1 0.1c0 0-0.1 0-0.1 0q-0.1 0.1-0.1 0.1c-0.1 0-0.2 0.1-0.3 0.1 0 0-0.3 0-0.3 0q0 0 0 0l-0.1-0.1q0 0-0.1 0c0 0-0.1 0-0.1 0q-0.1-0.1 0-0.1c-0.1 0-0.1 0-0.1 0-0.1 0-0.2-0.1-0.2-0.1v-0.1c0 0 0 0 0 0q0-0.1 0-0.1h-0.1c0-0.1 0-0.1 0-0.1q0-0.1 0-0.1c0-0.1 0-0.1 0-0.1l0.1-0.2c0 0 0 0 0-0.1 0 0 0 0 0 0v-0.1q0 0 0 0l0.2-0.3c0 0 0.1-0.1 0.1-0.1v-0.1l0.1-0.2c0 0 0.1 0 0.1 0zm-2.5 0c0.1 0 0.1-0.1 0.1 0.1 0.1-0.1 0.1-0.1 0.2-0.1q0-0.1 0 0 0 0.1 0 0.2 0 0 0 0c0 0 0 0.1 0 0.1q0 0.1 0 0.1c0 0 0 0.4 0 0.4q0 0.1 0 0.1 0 0 0 0c0 0.1 0 0.1 0 0.2q0 0 0 0v0.1c0 0.1 0 0.1 0 0.1 0 0.1-0.1 0.1-0.1 0.1v0.1c-0.1 0-0.1 0-0.1 0l-0.1 0.1h-0.1q0 0-0.1 0 0 0-0.1 0-0.1-0.1-0.1 0h-0.1c0 0-0.1-0.1-0.2-0.1 0-0.1 0-0.1 0-0.1h-0.1q0-0.1 0 0l-0.1-0.1q0-0.1 0-0.1c0 0 0 0 0 0 0 0 0-0.1 0-0.1 0-0.1 0-0.2 0-0.2 0 0 0 0 0-0.1 0 0 0 0 0-0.1 0 0 0.1 0 0.1 0l0.1-0.1c0-0.1 0.1-0.1 0.1-0.1q0 0 0 0 0.1-0.1 0.1-0.1l0.2-0.1q0 0 0.1-0.1l0.1-0.1h0.1v-0.1z"/>
</svg>